PathFileType	4	(X/Y/Z)	C:/Users/opensim2020/Desktop/walking_exp_matlab/subject02_walking10_straight_01.trc																																																																																																																															
DataRate	CameraRate	NumFrames	NumMarkers	Units	OrigDataRate	OrigDataStartFrame	OrigNumFrames																																																																																																																											
100	100	4	43	mm	100	572	328																																																																																																																											
Frame#	Time	LFHD			RFHD			LBHD			RBHD			C7			T10			CLAV			STRN			RBAK			LSHO			LUPA			LELB			LFRM			LWRA			LWRB			LFIN			RSHO			RUPA			RELB			RFRM			RWRA			RWRB			RFIN			LASI			RASI			LPSI			RPSI			LTHI			LKNE			LTIB			LANK			LHEE			LTOE			RTHI			RKNE			RTIB			RANK			RHEE			RTOE			*39			*40			*41			*42		
		X1	Y1	Z1	X2	Y2	Z2	X3	Y3	Z3	X4	Y4	Z4	X5	Y5	Z5	X6	Y6	Z6	X7	Y7	Z7	X8	Y8	Z8	X9	Y9	Z9	X10	Y10	Z10	X11	Y11	Z11	X12	Y12	Z12	X13	Y13	Z13	X14	Y14	Z14	X15	Y15	Z15	X16	Y16	Z16	X17	Y17	Z17	X18	Y18	Z18	X19	Y19	Z19	X20	Y20	Z20	X21	Y21	Z21	X22	Y22	Z22	X23	Y23	Z23	X24	Y24	Z24	X25	Y25	Z25	X26	Y26	Z26	X27	Y27	Z27	X28	Y28	Z28	X29	Y29	Z29	X30	Y30	Z30	X31	Y31	Z31	X32	Y32	Z32	X33	Y33	Z33	X34	Y34	Z34	X35	Y35	Z35	X36	Y36	Z36	X37	Y37	Z37	X38	Y38	Z38	X39	Y39	Z39	X40	Y40	Z40	X41	Y41	Z41	X42	Y42	Z42	X43	Y43	Z43
																																																																																																																																		
124	1.23	-634.53467	1742.31384	1365.49292	-624.15295	1726.79736	1508.70471	-729.81598	1625.81262	1361.18896	-730.96783	1604.67041	1502.97278	-749.91125	1501.99036	1437.55591	-794.22473	1227.48218	1448.55884	-609.95636	1439.5603	1420.33179	-552.87494	1268.27954	1435.31689	-798.24493	1331.83801	1509.10999	-686.82428	1470.19299	1252.29187	-713.2157	1267.5769	1177.57336	-722.05511	1125.75354	1169.98535	-710.21442	993.20929	1162.97217	-649.4234	872.2699	1197.71704	-696.15985	871.22235	1166.66187	-674.96069	808.4693	1165.16565	-654.39136	1478.05652	1620.53711	-646.40912	1284.70105	1708.32813	-599.70105	1143.02222	1722.98694	-539.63428	1036.98071	1725.13843	-468.31113	928.36005	1684.39355	-501.57111	912.53241	1728.11108	-448.61105	864.159	1716.35156	-544.94647	984.26563	1314.60437	-555.38135	952.17969	1572.19116	-761.2724	1013.30591	1387.30286	-766.68677	1005.63605	1500.85999	-547.40588	681.55188	1243.03552	-529.88458	479.34659	1269.57239	-548.6106	285.36618	1262.1449	-511.7431	67.27502	1291.60901	-544.05713	38.2798	1342.94824	-354.66266	35.48758	1278.38379	-700.53668	658.00854	1629.60144	-753.29907	456.46899	1601.82983	-878.4231	313.24893	1600.67456	-981.92645	149.09216	1567.00769	-1030.18555	113.08148	1507.43604	-871.17651	31.73378	1589.42944	-750.28912	1767.68481	1458.44214	2845.27637	1034.16663	-3360.3291	NaN	NaN	NaN	NaN	NaN	NaN
125	1.24	-627.79425	1743.20435	1362.25574	-617.2406	1728.04016	1505.47815	-722.68005	1626.47925	1358.31128	-723.70905	1605.61389	1500.14282	-742.64679	1502.79712	1435.17407	-786.30798	1228.11829	1446.45715	-602.51831	1440.74158	1417.97339	-544.98297	1269.64258	1432.84692	-790.50342	1332.4762	1506.85339	-679.0166	1471.30298	1249.97424	-704.46539	1268.48132	1174.79749	-712.15106	1126.78394	1167.48303	-700.81067	994.30054	1159.94043	-639.92542	872.97705	1194.93677	-686.78259	872.33466	1163.43567	-665.91498	809.23694	1162.12915	-647.06097	1479.58887	1618.05786	-640.21509	1285.90942	1705.36755	-593.69397	1144.29602	1720.24463	-534.4032	1037.7196	1722.80298	-463.65604	928.5965	1682.69141	-497.28	913.0213	1726.34924	-445.05414	863.82324	1714.54211	-536.41241	987.17395	1311.71851	-546.48096	953.14471	1568.35193	-752.75226	1014.29706	1384.8468	-757.38654	1006.48694	1498.88806	-537.45117	682.73022	1240.94238	-524.09247	479.59311	1267.92615	-545.28827	285.78171	1260.97913	-510.81641	67.33839	1291.5918	-543.94556	38.46232	1343.04382	-354.19299	35.16642	1278.81824	-690.3324	658.46252	1627.60645	-741.16937	456.80035	1602.60852	-869.03784	316.34259	1601.14636	-975.92706	154.65961	1567.18335	-1024.18982	120.341	1506.89856	-870.49731	31.78465	1589.3042	-743.54944	1768.47534	1455.15845	2845.76416	1034.37683	-3357.44067	NaN	NaN	NaN	NaN	NaN	NaN
126	1.25	-621.02277	1744.10254	1358.97339	-610.29041	1729.35681	1502.35815	-715.52441	1627.10413	1355.49719	-716.46515	1606.6532	1497.42053	-735.46954	1503.62451	1432.85254	-778.43005	1228.81055	1444.31274	-595.11035	1442.0675	1415.73706	-537.1347	1271.02808	1430.34644	-783.16248	1333.49951	1504.95496	-671.42932	1472.55042	1247.76245	-694.62793	1269.46387	1172.60352	-702.03381	1127.92188	1164.99341	-690.80548	995.68182	1156.84058	-630.75134	874.05701	1192.08057	-676.78271	873.29163	1160.17383	-656.41974	810.15497	1158.85608	-639.95038	1481.16797	1615.68884	-633.54919	1287.40381	1702.67017	-587.82892	1145.60083	1717.49329	-529.28168	1038.69922	1720.6698	-459.23041	928.68463	1680.99817	-493.05453	913.68176	1724.74255	-441.21994	863.94275	1713.3479	-528.12531	989.90729	1308.83948	-537.71515	954.38251	1564.53833	-744.242	1015.12683	1382.42737	-748.54425	1007.448	1496.96606	-528.61487	683.85577	1238.92163	-519.31085	479.7478	1266.31824	-542.84155	285.76657	1260.51709	-510.57452	67.28704	1291.6062	-543.94031	38.49371	1343.02417	-353.91605	34.92603	1278.92761	-679.95233	658.76355	1625.68494	-728.09802	456.98044	1604.04321	-858.72717	319.31711	1601.74146	-969.18079	160.48575	1567.17993	-1017.27887	128.27344	1506.12268	-869.58118	31.81827	1589.01074	-736.65613	1769.31702	1451.90247	2845.17456	1034.25952	-3360.27612	NaN	NaN	NaN	NaN	NaN	NaN
127	1.26	-614.07074	1744.97559	1355.86853	-603.30707	1730.75696	1499.23071	-708.47693	1627.80981	1352.76355	-709.25281	1607.84192	1494.79309	-728.19171	1504.52197	1430.53967	-770.64496	1229.59741	1442.20398	-587.70471	1443.45972	1413.54883	-529.23596	1272.51331	1427.97925	-775.36646	1334.20056	1502.92493	-663.98578	1473.83447	1245.63916	-685.63965	1270.625	1170.01318	-691.75323	1129.11096	1162.62866	-680.69537	997.11652	1153.98486	-621.30035	874.95935	1188.98364	-666.94452	874.71631	1156.49329	-646.89429	811.15686	1155.31348	-632.98456	1482.63403	1613.14978	-627.10242	1288.83533	1699.83557	-581.99097	1146.98389	1714.75952	-524.09729	1039.82471	1718.95581	-454.80499	929.06372	1679.63904	-489.013	914.34985	1723.26416	-437.55133	864.00195	1712.03687	-520.03687	992.46045	1305.96863	-529.50824	955.56604	1560.54077	-735.89941	1015.8139	1379.98206	-739.97424	1008.40601	1494.86108	-520.7453	684.60223	1236.78687	-515.2851	479.67947	1264.58411	-541.64667	285.69403	1260.19922	-510.42255	67.21273	1291.57715	-544.02948	38.53017	1342.96619	-353.72949	34.72005	1279.01245	-669.51007	658.9787	1623.96033	-714.34772	457.32474	1605.74927	-847.59442	322.18631	1602.47559	-961.30243	166.19795	1567.05176	-1009.34131	136.35393	1504.95691	-868.36053	31.92196	1588.46484	-729.81604	1770.33606	1448.71204	2845.17407	1034.15405	-3360.38403	NaN	NaN	NaN	NaN	NaN	NaN
